{
  "asset": {
    "version": "2.0",
    "generator": "THREE.GLTFExporter"
  },
  "scenes": [
    {
      "nodes": [
        32
      ],
      "name": "AuxScene"
    }
  ],
  "scene": 0,
  "nodes": [
    {
      "name": "spine"
    },
    {
      "name": "neck"
    },
    {
      "name": "head"
    },
    {
      "translation": [
        -6.315730360134347e-15,
        2.433652228516288,
        -3.728868880654407e-18
      ],
      "name": "head_end"
    },
    {
      "translation": [
        -6.884224576149345e-16,
        0.3868249993998104,
        -7.982144894707136e-19
      ],
      "name": "head",
      "children": [
        2,
        3
      ]
    },
    {
      "translation": [
        0,
        0.9931698590014908,
        -1.8337518423381387e-18
      ],
      "name": "neck",
      "children": [
        1,
        4
      ]
    },
    {
      "name": "l_shoulder"
    },
    {
      "translation": [
        1.1319836469220985,
        -4.440892098500626e-16,
        0
      ],
      "name": "l_arm_end"
    },
    {
      "translation": [
        1.1319836469220985,
        4.356388059683847e-16,
        0
      ],
      "name": "l_lower_arm",
      "children": [
        7
      ]
    },
    {
      "rotation": [
        0,
        0,
        0.3461403774530032,
        0.9381827322524607
      ],
      "translation": [
        0.5146969572967428,
        -1.1102230246251565e-16,
        0
      ],
      "name": "l_upper_arm",
      "children": [
        8
      ]
    },
    {
      "rotation": [
        0,
        0,
        -0.34614037745300347,
        0.9381827322524606
      ],
      "translation": [
        0.7670183577318501,
        0.721235402301625,
        3.160994447386074e-33
      ],
      "name": "l_shoulder",
      "children": [
        6,
        9
      ]
    },
    {
      "name": "r_shoulder"
    },
    {
      "rotation": [
        0.9934867139252895,
        -0.11394801118900377,
        -2.823323506781281e-9,
        2.461591355418796e-8
      ],
      "translation": [
        -0.1324361234890219,
        -0.10546371406261823,
        5.3655452170491094e-9
      ],
      "scale": [
        0.9999999999999999,
        0.9999999999999997,
        0.9999999999999999
      ],
      "name": "star",
      "mesh": 0
    },
    {
      "rotation": [
        1.4901161193847656e-8,
        8.271805875762868e-25,
        -1.1852246212115264e-24,
        0.9999999999999999
      ],
      "translation": [
        -1.1319899999999996,
        -8.881784197001252e-16,
        9.003745824098439e-17
      ],
      "name": "r_arm_end",
      "children": [
        12
      ]
    },
    {
      "rotation": [
        1.0536712127723509e-8,
        5.849050204022882e-25,
        -8.380803545619761e-25,
        0.9999999999999999
      ],
      "translation": [
        -1.1319799999999998,
        -8.881784197001252e-16,
        9.003664409326848e-17
      ],
      "name": "r_lower_arm",
      "children": [
        13
      ]
    },
    {
      "rotation": [
        -1.5407439555097887e-33,
        4.2389970530347725e-17,
        0.3461403774530032,
        0.9381827322524607
      ],
      "translation": [
        -0.5146979882829088,
        0.0000012356072272012852,
        -1.5131824363942614e-22
      ],
      "name": "r_upper_arm",
      "children": [
        14
      ]
    },
    {
      "rotation": [
        -0.9971764417310408,
        -0.07509401702524461,
        3.61609117243219e-17,
        4.941445198047102e-17
      ],
      "translation": [
        -0.767018,
        0.7212320613794869,
        3.160994447386074e-33
      ],
      "name": "r_shoulder",
      "children": [
        11,
        15
      ]
    },
    {
      "rotation": [
        0,
        0,
        -0.3007057995042731,
        0.9537169507482269
      ],
      "translation": [
        -1.0062152850868553,
        -1.9165096743537418,
        -1.1
      ],
      "scale": [
        0.9999999999999999,
        0.9999999999999999,
        1
      ],
      "name": "sword",
      "mesh": 1
    },
    {
      "translation": [
        0,
        0.9884044631301723,
        -3.160994447386074e-33
      ],
      "name": "spine",
      "children": [
        0,
        5,
        10,
        16,
        17
      ]
    },
    {
      "translation": [
        1.0771723937493967,
        -2.39180318606235e-16,
        0
      ],
      "name": "l_leg_end"
    },
    {
      "translation": [
        0.9228276062506029,
        -2.0490889124382742e-16,
        0
      ],
      "name": "l_lower_leg",
      "children": [
        19
      ]
    },
    {
      "rotation": [
        0,
        0,
        -0.7071067811865475,
        0.7071067811865477
      ],
      "translation": [
        0.49221524248142146,
        -0.4095034754903404,
        0
      ],
      "name": "l_upper_leg",
      "children": [
        20
      ]
    },
    {
      "translation": [
        -1.07717,
        4.996003610813204e-16,
        -6.162975822039155e-32
      ],
      "name": "r_leg_end"
    },
    {
      "translation": [
        -0.92283,
        3.885780586188048e-16,
        -4.930380657631324e-32
      ],
      "name": "r_lower_leg",
      "children": [
        22
      ]
    },
    {
      "rotation": [
        -0.7071067811865477,
        -0.7071067811865474,
        4.329780281177465e-17,
        4.3297802811774677e-17
      ],
      "translation": [
        -0.492215,
        -0.4095034754903404,
        0
      ],
      "name": "r_upper_leg",
      "children": [
        23
      ]
    },
    {
      "translation": [
        0,
        2.4095034754903404,
        0
      ],
      "name": "hip",
      "children": [
        18,
        21,
        24
      ]
    },
    {
      "name": "root",
      "children": [
        25
      ]
    },
    {
      "name": "head",
      "mesh": 2,
      "skin": 0
    },
    {
      "name": "body",
      "mesh": 3,
      "skin": 1
    },
    {
      "name": "skirt",
      "mesh": 4
    },
    {
      "name": "ninja_geo",
      "children": [
        27,
        28,
        29
      ]
    },
    {
      "name": "ninja_grp",
      "children": [
        26,
        30
      ]
    },
    {
      "children": [
        31
      ]
    }
  ],
  "bufferViews": [
    {
      "buffer": 0,
      "byteOffset": 0,
      "byteLength": 3456,
      "target": 34962,
      "byteStride": 12
    },
    {
      "buffer": 0,
      "byteOffset": 3456,
      "byteLength": 3456,
      "target": 34962,
      "byteStride": 12
    },
    {
      "buffer": 0,
      "byteOffset": 6912,
      "byteLength": 2304,
      "target": 34962,
      "byteStride": 8
    },
    {
      "buffer": 0,
      "byteOffset": 9216,
      "byteLength": 576,
      "target": 34963
    },
    {
      "buffer": 0,
      "byteOffset": 9792,
      "byteLength": 2304,
      "target": 34962,
      "byteStride": 12
    },
    {
      "buffer": 0,
      "byteOffset": 12096,
      "byteLength": 2304,
      "target": 34962,
      "byteStride": 12
    },
    {
      "buffer": 0,
      "byteOffset": 14400,
      "byteLength": 1536,
      "target": 34962,
      "byteStride": 8
    },
    {
      "buffer": 0,
      "byteOffset": 15936,
      "byteLength": 384,
      "target": 34963
    },
    {
      "buffer": 0,
      "byteOffset": 16320,
      "byteLength": 4896,
      "target": 34962,
      "byteStride": 12
    },
    {
      "buffer": 0,
      "byteOffset": 21216,
      "byteLength": 3264,
      "target": 34962,
      "byteStride": 8
    },
    {
      "buffer": 0,
      "byteOffset": 24480,
      "byteLength": 6528,
      "target": 34962,
      "byteStride": 16
    },
    {
      "buffer": 0,
      "byteOffset": 31008,
      "byteLength": 4896,
      "target": 34962,
      "byteStride": 12
    },
    {
      "buffer": 0,
      "byteOffset": 35904,
      "byteLength": 3264,
      "target": 34962,
      "byteStride": 8
    },
    {
      "buffer": 0,
      "byteOffset": 39168,
      "byteLength": 816,
      "target": 34963
    },
    {
      "buffer": 0,
      "byteOffset": 39984,
      "byteLength": 13824,
      "target": 34962,
      "byteStride": 12
    },
    {
      "buffer": 0,
      "byteOffset": 53808,
      "byteLength": 9216,
      "target": 34962,
      "byteStride": 8
    },
    {
      "buffer": 0,
      "byteOffset": 63024,
      "byteLength": 18432,
      "target": 34962,
      "byteStride": 16
    },
    {
      "buffer": 0,
      "byteOffset": 81456,
      "byteLength": 13824,
      "target": 34962,
      "byteStride": 12
    },
    {
      "buffer": 0,
      "byteOffset": 95280,
      "byteLength": 9216,
      "target": 34962,
      "byteStride": 8
    },
    {
      "buffer": 0,
      "byteOffset": 104496,
      "byteLength": 2304,
      "target": 34963
    },
    {
      "buffer": 0,
      "byteOffset": 106800,
      "byteLength": 9360,
      "target": 34962,
      "byteStride": 12
    },
    {
      "buffer": 0,
      "byteOffset": 116160,
      "byteLength": 9360,
      "target": 34962,
      "byteStride": 12
    },
    {
      "buffer": 0,
      "byteOffset": 125520,
      "byteLength": 6240,
      "target": 34962,
      "byteStride": 8
    },
    {
      "buffer": 0,
      "byteOffset": 131760,
      "byteLength": 1560,
      "target": 34963
    },
    {
      "buffer": 0,
      "byteOffset": 133320,
      "byteLength": 384
    },
    {
      "buffer": 0,
      "byteOffset": 133704,
      "byteLength": 1216
    },
    {
      "buffer": 0,
      "byteOffset": 134920,
      "byteLength": 12
    },
    {
      "buffer": 0,
      "byteOffset": 134932,
      "byteLength": 48
    }
  ],
  "buffers": [
    {
      "byteLength": 134980,
      "uri": "data:application/octet-stream;base64,"
    }
  ],
  "accessors": [
    {
      "bufferView": 0,
      "componentType": 5126,
      "count": 288,
      "max": [
        0.44399452209472656,
        0.4260437786579132,
        0.011872361414134502
      ],
      "min": [
        -0.44399452209472656,
        -0.46194255352020264,
        -0.011872361414134502
      ],
      "type": "VEC3"
    },
    {
      "bufferView": 1,
      "componentType": 5126,
      "count": 288,
      "max": [
        0.9916819334030151,
        0.991682231426239,
        0.9999257326126099
      ],
      "min": [
        -0.9916821718215942,
        -0.991681694984436,
        -0.9999256730079651
      ],
      "type": "VEC3"
    },
    {
      "bufferView": 2,
      "componentType": 5126,
      "count": 288,
      "max": [
        0.9686329960823059,
        0.8350877165794373
      ],
      "min": [
        0.8863515853881836,
        0.693473756313324
      ],
      "type": "VEC2"
    },
    {
      "bufferView": 3,
      "componentType": 5123,
      "count": 288,
      "max": [
        287
      ],
      "min": [
        0
      ],
      "type": "SCALAR"
    },
    {
      "bufferView": 4,
      "componentType": 5126,
      "count": 192,
      "max": [
        0.4554068148136139,
        5.169153690338135,
        0.08727941662073135
      ],
      "min": [
        -0.45647963881492615,
        0.005614280700683594,
        -0.08727941662073135
      ],
      "type": "VEC3"
    },
    {
      "bufferView": 5,
      "componentType": 5126,
      "count": 192,
      "max": [
        1,
        1,
        1
      ],
      "min": [
        -1,
        -1,
        -1
      ],
      "type": "VEC3"
    },
    {
      "bufferView": 6,
      "componentType": 5126,
      "count": 192,
      "max": [
        0.9574868679046631,
        0.4288499355316162
      ],
      "min": [
        0.03075180947780609,
        0.24293839931488037
      ],
      "type": "VEC2"
    },
    {
      "bufferView": 7,
      "componentType": 5123,
      "count": 192,
      "max": [
        191
      ],
      "min": [
        0
      ],
      "type": "SCALAR"
    },
    {
      "bufferView": 8,
      "componentType": 5126,
      "count": 408,
      "max": [
        0.9833949208259583,
        7.245904922485352,
        1.0203969478607178
      ],
      "min": [
        -0.9833948016166687,
        4.462226390838623,
        -1.0203968286514282
      ],
      "type": "VEC3"
    },
    {
      "bufferView": 9,
      "componentType": 5123,
      "count": 408,
      "max": [
        2,
        0,
        0,
        0
      ],
      "min": [
        2,
        0,
        0,
        0
      ],
      "type": "VEC4"
    },
    {
      "bufferView": 10,
      "componentType": 5126,
      "count": 408,
      "max": [
        1,
        0,
        0,
        0
      ],
      "min": [
        1,
        0,
        0,
        0
      ],
      "type": "VEC4"
    },
    {
      "bufferView": 11,
      "componentType": 5126,
      "count": 408,
      "max": [
        0.9994789361953735,
        1,
        0.9998891949653625
      ],
      "min": [
        -0.999478816986084,
        -0.9306649565696716,
        -0.9199122190475464
      ],
      "type": "VEC3"
    },
    {
      "bufferView": 12,
      "componentType": 5126,
      "count": 408,
      "max": [
        0.667335033416748,
        0.7729688882827759
      ],
      "min": [
        0.33266496658325195,
        0.417641282081604
      ],
      "type": "VEC2"
    },
    {
      "bufferView": 13,
      "componentType": 5123,
      "count": 408,
      "max": [
        407
      ],
      "min": [
        0
      ],
      "type": "SCALAR"
    },
    {
      "bufferView": 14,
      "componentType": 5126,
      "count": 1152,
      "max": [
        3.414912223815918,
        4.669450759887695,
        0.9698255658149719
      ],
      "min": [
        -3.414912223815918,
        -0.0037323515862226486,
        -0.9698255658149719
      ],
      "type": "VEC3"
    },
    {
      "bufferView": 15,
      "componentType": 5123,
      "count": 1152,
      "max": [
        17,
        18,
        17,
        0
      ],
      "min": [
        0,
        0,
        0,
        0
      ],
      "type": "VEC4"
    },
    {
      "bufferView": 16,
      "componentType": 5126,
      "count": 1152,
      "max": [
        1,
        0.8492169380187988,
        0.5507678389549255,
        0
      ],
      "min": [
        0.006704830098897219,
        0,
        0,
        0
      ],
      "type": "VEC4"
    },
    {
      "bufferView": 17,
      "componentType": 5126,
      "count": 1152,
      "max": [
        1,
        0.9429314136505127,
        1
      ],
      "min": [
        -1,
        -1,
        -1
      ],
      "type": "VEC3"
    },
    {
      "bufferView": 18,
      "componentType": 5126,
      "count": 1152,
      "max": [
        0.9767651557922363,
        0.6945412158966064
      ],
      "min": [
        0.023234859108924866,
        0.03419675678014755
      ],
      "type": "VEC2"
    },
    {
      "bufferView": 19,
      "componentType": 5123,
      "count": 1152,
      "max": [
        1151
      ],
      "min": [
        0
      ],
      "type": "SCALAR"
    },
    {
      "bufferView": 20,
      "componentType": 5126,
      "count": 780,
      "max": [
        1.1186213493347168,
        2.713632345199585,
        1.0549119710922241
      ],
      "min": [
        -1.1186213493347168,
        1.3077335357666016,
        -1.0549119710922241
      ],
      "type": "VEC3"
    },
    {
      "bufferView": 21,
      "componentType": 5126,
      "count": 780,
      "max": [
        0.9557696580886841,
        1,
        1
      ],
      "min": [
        -0.989473819732666,
        -1,
        -1
      ],
      "type": "VEC3"
    },
    {
      "bufferView": 22,
      "componentType": 5126,
      "count": 780,
      "max": [
        0.8635935187339783,
        0.9728113412857056
      ],
      "min": [
        0.07132504880428314,
        0.7267884016036987
      ],
      "type": "VEC2"
    },
    {
      "bufferView": 23,
      "componentType": 5123,
      "count": 780,
      "max": [
        779
      ],
      "min": [
        0
      ],
      "type": "SCALAR"
    },
    {
      "bufferView": 24,
      "componentType": 5126,
      "count": 6,
      "max": [
        1,
        0.6494858264923096,
        0,
        0,
        0.6494858264923096,
        1,
        9.311891778098123e-17,
        0,
        2.465190328815662e-32,
        0,
        1,
        0,
        2.09210467338562,
        3.6302530765533447,
        6.360835276436796e-18,
        1
      ],
      "min": [
        0.7603736519813538,
        0,
        -7.953907381236347e-17,
        0,
        -0.6494858264923096,
        -0.7603736519813538,
        0,
        0,
        0,
        -1.2246468525851679e-16,
        -1,
        0,
        -2.0921027660369873,
        -7.211555004119873,
        -4.445777890419507e-16,
        1
      ],
      "type": "MAT4"
    },
    {
      "bufferView": 25,
      "componentType": 5126,
      "count": 19,
      "max": [
        1,
        1,
        0,
        0,
        1,
        1,
        5.0875748058842873e-8,
        0,
        2.465190328815662e-32,
        0,
        1,
        0,
        3.4223499298095703,
        3.7848498821258545,
        2.6319662864130762e-18,
        1
      ],
      "min": [
        2.832769343193999e-16,
        0,
        -1.2246468525851679e-16,
        0,
        -1,
        -1,
        0,
        0,
        -7.953907381236347e-17,
        -5.0875748058842873e-8,
        -1,
        0,
        -3.4223477840423584,
        -4.777902603149414,
        -1.9255706718013244e-7,
        1
      ],
      "type": "MAT4"
    },
    {
      "bufferView": 26,
      "componentType": 5126,
      "count": 3,
      "max": [
        2
      ],
      "min": [
        0.0416666679084301
      ],
      "type": "SCALAR"
    },
    {
      "bufferView": 27,
      "componentType": 5126,
      "count": 3,
      "max": [
        -0.9381827116012573,
        -0.02183973602950573,
        3.874320759807289e-17,
        5.744712444154634e-17
      ],
      "min": [
        -0.9997614622116089,
        -0.34614038467407227,
        2.1194984493066687e-17,
        4.7416911004740633e-17
      ],
      "type": "VEC4"
    }
  ],
  "materials": [
    {
      "pbrMetallicRoughness": {
        "baseColorFactor": [
          0.800000011920929,
          0.800000011920929,
          0.800000011920929,
          1
        ],
        "metallicFactor": 0.5,
        "roughnessFactor": 0.5,
        "baseColorTexture": {
          "index": 0
        }
      },
      "name": "ninja_tex"
    },
    {
      "pbrMetallicRoughness": {
        "baseColorFactor": [
          0.800000011920929,
          0.800000011920929,
          0.800000011920929,
          1
        ],
        "metallicFactor": 0.5,
        "roughnessFactor": 0.5,
        "baseColorTexture": {
          "index": 0
        }
      },
      "name": "ninja_tex"
    }
  ],
  "textures": [
    {
      "sampler": 0,
      "source": 0
    }
  ],
  "samplers": [
    {
      "magFilter": 9729,
      "minFilter": 9987
    }
  ],
  "images": [
    {
      "mimeType": "image/png",
      "uri": "data:image/png;base64,"
    }
  ],
  "meshes": [
    {
      "primitives": [
        {
          "mode": 4,
          "attributes": {
            "POSITION": 0,
            "NORMAL": 1,
            "TEXCOORD_0": 2
          },
          "indices": 3,
          "material": 0
        }
      ]
    },
    {
      "primitives": [
        {
          "mode": 4,
          "attributes": {
            "POSITION": 4,
            "NORMAL": 5,
            "TEXCOORD_0": 6
          },
          "indices": 7,
          "material": 0
        }
      ]
    },
    {
      "primitives": [
        {
          "mode": 4,
          "attributes": {
            "POSITION": 8,
            "JOINTS_0": 9,
            "WEIGHTS_0": 10,
            "NORMAL": 11,
            "TEXCOORD_0": 12
          },
          "indices": 13,
          "material": 1
        }
      ]
    },
    {
      "primitives": [
        {
          "mode": 4,
          "attributes": {
            "POSITION": 14,
            "JOINTS_0": 15,
            "WEIGHTS_0": 16,
            "NORMAL": 17,
            "TEXCOORD_0": 18
          },
          "indices": 19,
          "material": 1
        }
      ]
    },
    {
      "primitives": [
        {
          "mode": 4,
          "attributes": {
            "POSITION": 20,
            "NORMAL": 21,
            "TEXCOORD_0": 22
          },
          "indices": 23,
          "material": 0
        }
      ]
    }
  ],
  "skins": [
    {
      "inverseBindMatrices": 24,
      "joints": [
        18,
        5,
        4,
        3,
        16,
        10
      ],
      "skeleton": 18
    },
    {
      "inverseBindMatrices": 25,
      "joints": [
        26,
        25,
        0,
        1,
        2,
        11,
        15,
        14,
        13,
        6,
        9,
        8,
        7,
        21,
        20,
        19,
        24,
        23,
        22
      ],
      "skeleton": 26
    }
  ],
  "animations": [
    {
      "name": "Take 001",
      "samplers": [
        {
          "input": 26,
          "output": 27,
          "interpolation": "LINEAR"
        }
      ],
      "channels": [
        {
          "sampler": 0,
          "target": {
            "node": 16,
            "path": "rotation"
          }
        }
      ]
    }
  ]
}