{
  "asset": {
    "version": "2.0",
    "generator": "THREE.GLTFExporter"
  },
  "scenes": [
    {
      "nodes": [
        27
      ],
      "name": "Root Scene"
    }
  ],
  "scene": 0,
  "nodes": [
    {
      "translation": [
        -6.31573044112326e-17,
        0.0243365205824375,
        -3.72886880907796e-20
      ],
      "name": "head_end"
    },
    {
      "translation": [
        -6.88422471004299e-18,
        0.0038682499434799,
        -7.98214508491397e-21
      ],
      "name": "head",
      "children": [
        0
      ]
    },
    {
      "translation": [
        0,
        0.00993169844150543,
        -1.83375181992695e-20
      ],
      "name": "neck",
      "children": [
        1
      ]
    },
    {
      "translation": [
        0.0113198356702924,
        -4.44089199923895e-18,
        0
      ],
      "name": "l_arm_end"
    },
    {
      "translation": [
        0.0113198356702924,
        0,
        0
      ],
      "name": "l_lower_arm",
      "children": [
        3
      ]
    },
    {
      "rotation": [
        0,
        0,
        0.346140384674072,
        0.938182711601257
      ],
      "translation": [
        0.00514696957543492,
        -4.44089199923895e-18,
        0
      ],
      "name": "l_upper_arm",
      "children": [
        4
      ]
    },
    {
      "rotation": [
        0,
        0,
        -0.346140384674072,
        0.938182711601257
      ],
      "translation": [
        0.00767018366605043,
        0.00721235387027264,
        3.16099413595581e-35
      ],
      "name": "l_shoulder",
      "children": [
        5
      ]
    },
    {
      "rotation": [
        0.993486702442169,
        -0.113948009908199,
        -2.82332357492976e-9,
        2.46159128636236e-8
      ],
      "translation": [
        -0.00132436119019985,
        -0.00105463713407516,
        5.36554516095133e-11
      ],
      "name": "star",
      "mesh": 0
    },
    {
      "rotation": [
        1.49011611938477e-8,
        7.94366907820422e-25,
        1.69960451808416e-26,
        1
      ],
      "translation": [
        -0.0113198990002275,
        -4.44089199923895e-18,
        9.00374723030548e-19
      ],
      "name": "r_arm_end",
      "children": [
        7
      ]
    },
    {
      "rotation": [
        1.05367119473954e-8,
        5.84905010392065e-25,
        -6.06533705720795e-33,
        1
      ],
      "translation": [
        -0.011319799348712,
        -1.33226759977169e-17,
        9.00366451224422e-19
      ],
      "name": "r_lower_arm",
      "children": [
        8
      ]
    },
    {
      "rotation": [
        0,
        4.23899689861334e-17,
        0.346140384674072,
        0.938182711601257
      ],
      "translation": [
        -0.00514697935432196,
        1.23560717213422e-8,
        -1.51318233877272e-24
      ],
      "name": "r_upper_arm",
      "children": [
        9
      ]
    },
    {
      "rotation": [
        0.9595041382219824,
        0.28169454639068137,
        -2.5203428739074542e-17,
        -5.642529207074289e-17
      ],
      "translation": [
        -0.00767017994076014,
        0.00721232034265995,
        3.16099413595581e-35
      ],
      "name": "r_shoulder",
      "children": [
        10
      ]
    },
    {
      "translation": [
        0,
        0.00988404452800751,
        -3.16099413595581e-35
      ],
      "name": "spine",
      "children": [
        2,
        6,
        11
      ]
    },
    {
      "translation": [
        0.0107717234641314,
        -2.22044599961948e-18,
        0
      ],
      "name": "l_leg_end"
    },
    {
      "translation": [
        0.00922827608883381,
        -2.22044599961948e-18,
        0
      ],
      "name": "l_lower_leg",
      "children": [
        13
      ]
    },
    {
      "rotation": [
        0,
        0,
        -0.70710676908493,
        0.70710676908493
      ],
      "translation": [
        0.00492215249687433,
        -0.00409503467381001,
        0
      ],
      "name": "l_upper_leg",
      "children": [
        14
      ]
    },
    {
      "translation": [
        -0.010771700181067,
        4.99600339574625e-18,
        -6.16297545469717e-34
      ],
      "name": "r_leg_end"
    },
    {
      "translation": [
        -0.00922829937189817,
        3.88578060273166e-18,
        -4.93038054742873e-34
      ],
      "name": "r_lower_leg",
      "children": [
        16
      ]
    },
    {
      "rotation": [
        0.70710676908493,
        0.70710676908493,
        -4.32978030171328e-17,
        -4.32978030171328e-17
      ],
      "translation": [
        -0.0049221501685679,
        -0.00409503467381001,
        0
      ],
      "name": "r_upper_leg",
      "children": [
        17
      ]
    },
    {
      "translation": [
        0,
        0.0240950342267752,
        0
      ],
      "name": "hip",
      "children": [
        12,
        15,
        18
      ]
    },
    {
      "name": "root",
      "children": [
        19
      ]
    },
    {
      "name": "head",
      "mesh": 1,
      "skin": 0
    },
    {
      "name": "body",
      "mesh": 2,
      "skin": 1
    },
    {
      "name": "skirt",
      "mesh": 3
    },
    {
      "rotation": [
        0,
        0,
        -0.300705790519714,
        0.953716933727264
      ],
      "translation": [
        -0.0100621534511447,
        0.0148139819502831,
        -0.0109999999403954
      ],
      "name": "sword",
      "mesh": 4
    },
    {
      "name": "ninja_geo",
      "children": [
        21,
        22,
        23,
        24
      ]
    },
    {
      "name": "ninja_grp",
      "children": [
        20,
        25
      ]
    },
    {
      "name": "RootNode",
      "children": [
        26
      ]
    }
  ],
  "bufferViews": [
    {
      "buffer": 0,
      "byteOffset": 0,
      "byteLength": 1368,
      "target": 34962,
      "byteStride": 12
    },
    {
      "buffer": 0,
      "byteOffset": 1368,
      "byteLength": 1368,
      "target": 34962,
      "byteStride": 12
    },
    {
      "buffer": 0,
      "byteOffset": 2736,
      "byteLength": 912,
      "target": 34962,
      "byteStride": 8
    },
    {
      "buffer": 0,
      "byteOffset": 3648,
      "byteLength": 576,
      "target": 34963
    },
    {
      "buffer": 0,
      "byteOffset": 4224,
      "byteLength": 720,
      "target": 34962,
      "byteStride": 8
    },
    {
      "buffer": 0,
      "byteOffset": 4944,
      "byteLength": 1080,
      "target": 34962,
      "byteStride": 12
    },
    {
      "buffer": 0,
      "byteOffset": 6024,
      "byteLength": 1080,
      "target": 34962,
      "byteStride": 12
    },
    {
      "buffer": 0,
      "byteOffset": 7104,
      "byteLength": 720,
      "target": 34962,
      "byteStride": 8
    },
    {
      "buffer": 0,
      "byteOffset": 7824,
      "byteLength": 1440,
      "target": 34962,
      "byteStride": 16
    },
    {
      "buffer": 0,
      "byteOffset": 9264,
      "byteLength": 816,
      "target": 34963
    },
    {
      "buffer": 0,
      "byteOffset": 10080,
      "byteLength": 2168,
      "target": 34962,
      "byteStride": 8
    },
    {
      "buffer": 0,
      "byteOffset": 12248,
      "byteLength": 3252,
      "target": 34962,
      "byteStride": 12
    },
    {
      "buffer": 0,
      "byteOffset": 15500,
      "byteLength": 3252,
      "target": 34962,
      "byteStride": 12
    },
    {
      "buffer": 0,
      "byteOffset": 18752,
      "byteLength": 2168,
      "target": 34962,
      "byteStride": 8
    },
    {
      "buffer": 0,
      "byteOffset": 20920,
      "byteLength": 4336,
      "target": 34962,
      "byteStride": 16
    },
    {
      "buffer": 0,
      "byteOffset": 25256,
      "byteLength": 2304,
      "target": 34963
    },
    {
      "buffer": 0,
      "byteOffset": 27560,
      "byteLength": 1788,
      "target": 34962,
      "byteStride": 12
    },
    {
      "buffer": 0,
      "byteOffset": 29348,
      "byteLength": 1788,
      "target": 34962,
      "byteStride": 12
    },
    {
      "buffer": 0,
      "byteOffset": 31136,
      "byteLength": 1192,
      "target": 34962,
      "byteStride": 8
    },
    {
      "buffer": 0,
      "byteOffset": 32328,
      "byteLength": 1560,
      "target": 34963
    },
    {
      "buffer": 0,
      "byteOffset": 33888,
      "byteLength": 1056,
      "target": 34962,
      "byteStride": 12
    },
    {
      "buffer": 0,
      "byteOffset": 34944,
      "byteLength": 1056,
      "target": 34962,
      "byteStride": 12
    },
    {
      "buffer": 0,
      "byteOffset": 36000,
      "byteLength": 704,
      "target": 34962,
      "byteStride": 8
    },
    {
      "buffer": 0,
      "byteOffset": 36704,
      "byteLength": 384,
      "target": 34963
    },
    {
      "buffer": 0,
      "byteOffset": 37088,
      "byteLength": 384
    },
    {
      "buffer": 0,
      "byteOffset": 37472,
      "byteLength": 1216
    },
    {
      "buffer": 0,
      "byteOffset": 38688,
      "byteLength": 192
    },
    {
      "buffer": 0,
      "byteOffset": 38880,
      "byteLength": 768
    }
  ],
  "buffers": [
    {
      "byteLength": 39648,
      "uri": "data:application/octet-stream;base64,"
    }
  ],
  "accessors": [
    {
      "bufferView": 0,
      "componentType": 5126,
      "count": 114,
      "max": [
        0.9916819930076599,
        0.991682231426239,
        0.9999256730079651
      ],
      "min": [
        -0.9916821718215942,
        -0.9916816353797913,
        -0.9999256730079651
      ],
      "type": "VEC3"
    },
    {
      "bufferView": 1,
      "componentType": 5126,
      "count": 114,
      "max": [
        0.004439945332705975,
        0.004260437563061714,
        0.00011872361210407689
      ],
      "min": [
        -0.004439945332705975,
        -0.004619425628334284,
        -0.00011872361210407689
      ],
      "type": "VEC3"
    },
    {
      "bufferView": 2,
      "componentType": 5126,
      "count": 114,
      "max": [
        0.9686329960823059,
        0.306526243686676
      ],
      "min": [
        0.8863515853881836,
        0.16491228342056274
      ],
      "type": "VEC2"
    },
    {
      "bufferView": 3,
      "componentType": 5123,
      "count": 288,
      "max": [
        113
      ],
      "min": [
        0
      ],
      "type": "SCALAR"
    },
    {
      "bufferView": 4,
      "componentType": 5123,
      "count": 90,
      "max": [
        2,
        0,
        0,
        0
      ],
      "min": [
        2,
        0,
        0,
        0
      ],
      "type": "VEC4"
    },
    {
      "bufferView": 5,
      "componentType": 5126,
      "count": 90,
      "max": [
        0.9994788765907288,
        1,
        0.999889075756073
      ],
      "min": [
        -0.9994788765907288,
        -0.9306649565696716,
        -0.9199122786521912
      ],
      "type": "VEC3"
    },
    {
      "bufferView": 6,
      "componentType": 5126,
      "count": 90,
      "max": [
        0.00983394868671894,
        0.07245904952287674,
        0.010203969664871693
      ],
      "min": [
        -0.009833947755396366,
        0.044622261077165604,
        -0.010203967802226543
      ],
      "type": "VEC3"
    },
    {
      "bufferView": 7,
      "componentType": 5126,
      "count": 90,
      "max": [
        0.667335033416748,
        0.582358717918396
      ],
      "min": [
        0.33266496658325195,
        0.22703111171722412
      ],
      "type": "VEC2"
    },
    {
      "bufferView": 8,
      "componentType": 5126,
      "count": 90,
      "max": [
        1,
        0,
        0,
        0
      ],
      "min": [
        1,
        0,
        0,
        0
      ],
      "type": "VEC4"
    },
    {
      "bufferView": 9,
      "componentType": 5123,
      "count": 408,
      "max": [
        89
      ],
      "min": [
        0
      ],
      "type": "SCALAR"
    },
    {
      "bufferView": 10,
      "componentType": 5123,
      "count": 271,
      "max": [
        17,
        18,
        17,
        0
      ],
      "min": [
        0,
        0,
        0,
        0
      ],
      "type": "VEC4"
    },
    {
      "bufferView": 11,
      "componentType": 5126,
      "count": 271,
      "max": [
        1,
        0.9429313540458679,
        1
      ],
      "min": [
        -1,
        -1,
        -1
      ],
      "type": "VEC3"
    },
    {
      "bufferView": 12,
      "componentType": 5126,
      "count": 271,
      "max": [
        0.03414912149310112,
        0.04669450595974922,
        0.009698254987597466
      ],
      "min": [
        -0.03414912149310112,
        -0.00003732351615326479,
        -0.009698254987597466
      ],
      "type": "VEC3"
    },
    {
      "bufferView": 13,
      "componentType": 5126,
      "count": 271,
      "max": [
        0.9767651557922363,
        0.9658032655715942
      ],
      "min": [
        0.023234859108924866,
        0.30545878410339355
      ],
      "type": "VEC2"
    },
    {
      "bufferView": 14,
      "componentType": 5126,
      "count": 271,
      "max": [
        1,
        0.5,
        0.32416975498199463,
        0
      ],
      "min": [
        0.35165154933929443,
        0,
        0,
        0
      ],
      "type": "VEC4"
    },
    {
      "bufferView": 15,
      "componentType": 5123,
      "count": 1152,
      "max": [
        270
      ],
      "min": [
        0
      ],
      "type": "SCALAR"
    },
    {
      "bufferView": 16,
      "componentType": 5126,
      "count": 149,
      "max": [
        0.9557697176933289,
        1,
        1
      ],
      "min": [
        -0.9894737601280212,
        -1,
        -1
      ],
      "type": "VEC3"
    },
    {
      "bufferView": 17,
      "componentType": 5126,
      "count": 149,
      "max": [
        0.011186213232576847,
        0.027136322110891342,
        0.010549119673669338
      ],
      "min": [
        -0.011186213232576847,
        0.013077335432171822,
        -0.010549119673669338
      ],
      "type": "VEC3"
    },
    {
      "bufferView": 18,
      "componentType": 5126,
      "count": 149,
      "max": [
        0.8635935187339783,
        0.27321159839630127
      ],
      "min": [
        0.07132504880428314,
        0.027188658714294434
      ],
      "type": "VEC2"
    },
    {
      "bufferView": 19,
      "componentType": 5123,
      "count": 780,
      "max": [
        148
      ],
      "min": [
        0
      ],
      "type": "SCALAR"
    },
    {
      "bufferView": 20,
      "componentType": 5126,
      "count": 88,
      "max": [
        1,
        1,
        1
      ],
      "min": [
        -1,
        -1,
        -1
      ],
      "type": "VEC3"
    },
    {
      "bufferView": 21,
      "componentType": 5126,
      "count": 88,
      "max": [
        0.004554068204015493,
        0.051691535860300064,
        0.000872794131282717
      ],
      "min": [
        -0.004564796108752489,
        0.00005614280598820187,
        -0.000872794131282717
      ],
      "type": "VEC3"
    },
    {
      "bufferView": 22,
      "componentType": 5126,
      "count": 88,
      "max": [
        0.9574868679046631,
        0.7570616006851196
      ],
      "min": [
        0.03075180947780609,
        0.5711500644683838
      ],
      "type": "VEC2"
    },
    {
      "bufferView": 23,
      "componentType": 5123,
      "count": 192,
      "max": [
        87
      ],
      "min": [
        0
      ],
      "type": "SCALAR"
    },
    {
      "bufferView": 24,
      "componentType": 5126,
      "count": 6,
      "max": [
        1,
        0.6494858264923096,
        0,
        0,
        0.6494858264923096,
        1,
        9.311891116353633e-17,
        0,
        2.465190328815662e-32,
        0,
        1,
        0,
        0.020921045914292336,
        0.03630252927541733,
        6.360835379834373e-20,
        1
      ],
      "min": [
        0.7603736519813538,
        0,
        -7.953906719491857e-17,
        0,
        -0.6494858264923096,
        -0.7603736519813538,
        0,
        0,
        0,
        -1.2246468525851679e-16,
        -1,
        0,
        -0.020921027287840843,
        -0.07211554795503616,
        -4.445777741526997e-18,
        1
      ],
      "type": "MAT4"
    },
    {
      "bufferView": 25,
      "componentType": 5126,
      "count": 19,
      "max": [
        1,
        1,
        0,
        0,
        1,
        1,
        5.0875744506129195e-8,
        0,
        2.465190328815662e-32,
        0,
        1,
        0,
        0.03422349691390991,
        0.03784849867224693,
        2.631966247638985e-20,
        1
      ],
      "min": [
        2.832769343193999e-16,
        0,
        -1.2246468525851679e-16,
        0,
        -1,
        -1,
        0,
        0,
        -7.953906719491857e-17,
        -5.0875744506129195e-8,
        -1,
        0,
        -0.03422347828745842,
        -0.04777902364730835,
        -1.9255705918652666e-9,
        1
      ],
      "type": "MAT4"
    },
    {
      "bufferView": 26,
      "componentType": 5126,
      "count": 48,
      "max": [
        1.9583333730697632
      ],
      "min": [
        0
      ],
      "type": "SCALAR"
    },
    {
      "bufferView": 27,
      "componentType": 5126,
      "count": 48,
      "max": [
        0.9997614622116089,
        0.34614038467407227,
        -2.1194984493066687e-17,
        -5.62033359678422e-17
      ],
      "min": [
        0.9381827116012573,
        0.02183973602950573,
        -3.9026698937607066e-17,
        -6.039441528618708e-17
      ],
      "type": "VEC4"
    }
  ],
  "materials": [
    {
      "pbrMetallicRoughness": {
        "baseColorFactor": [
          0.800000011920929,
          0.800000011920929,
          0.800000011920929,
          1
        ],
        "metallicFactor": 0.200000002980232,
        "roughnessFactor": 0.800000011920929,
        "baseColorTexture": {
          "index": 0
        }
      },
      "name": "ninja_tex",
      "extras": {
        "fromFBX": {
          "shadingModel": "Lambert",
          "isTruePBR": false
        }
      }
    },
    {
      "pbrMetallicRoughness": {
        "baseColorFactor": [
          0.800000011920929,
          0.800000011920929,
          0.800000011920929,
          1
        ],
        "metallicFactor": 0.200000002980232,
        "roughnessFactor": 0.800000011920929,
        "baseColorTexture": {
          "index": 0
        }
      },
      "name": "ninja_tex",
      "extras": {
        "fromFBX": {
          "shadingModel": "Lambert",
          "isTruePBR": false
        }
      }
    }
  ],
  "textures": [
    {
      "sampler": 0,
      "source": 0
    }
  ],
  "samplers": [
    {
      "magFilter": 9729,
      "minFilter": 9987
    }
  ],
  "images": [
    {
      "mimeType": "image/png",
      "uri": "data:image/png;base64,"
    }
  ],
  "meshes": [
    {
      "primitives": [
        {
          "mode": 4,
          "attributes": {
            "NORMAL": 0,
            "POSITION": 1,
            "TEXCOORD_0": 2
          },
          "indices": 3,
          "material": 0
        }
      ]
    },
    {
      "primitives": [
        {
          "mode": 4,
          "attributes": {
            "JOINTS_0": 4,
            "NORMAL": 5,
            "POSITION": 6,
            "TEXCOORD_0": 7,
            "WEIGHTS_0": 8
          },
          "indices": 9,
          "material": 1
        }
      ]
    },
    {
      "primitives": [
        {
          "mode": 4,
          "attributes": {
            "JOINTS_0": 10,
            "NORMAL": 11,
            "POSITION": 12,
            "TEXCOORD_0": 13,
            "WEIGHTS_0": 14
          },
          "indices": 15,
          "material": 1
        }
      ]
    },
    {
      "primitives": [
        {
          "mode": 4,
          "attributes": {
            "NORMAL": 16,
            "POSITION": 17,
            "TEXCOORD_0": 18
          },
          "indices": 19,
          "material": 0
        }
      ]
    },
    {
      "primitives": [
        {
          "mode": 4,
          "attributes": {
            "NORMAL": 20,
            "POSITION": 21,
            "TEXCOORD_0": 22
          },
          "indices": 23,
          "material": 0
        }
      ]
    }
  ],
  "skins": [
    {
      "inverseBindMatrices": 24,
      "joints": [
        12,
        2,
        1,
        0,
        11,
        6
      ],
      "skeleton": 12
    },
    {
      "inverseBindMatrices": 25,
      "joints": [
        20,
        19,
        12,
        2,
        1,
        11,
        10,
        9,
        8,
        6,
        5,
        4,
        3,
        15,
        14,
        13,
        18,
        17,
        16
      ],
      "skeleton": 20
    }
  ],
  "animations": [
    {
      "name": "Take 001",
      "samplers": [
        {
          "input": 26,
          "output": 27,
          "interpolation": "LINEAR"
        }
      ],
      "channels": [
        {
          "sampler": 0,
          "target": {
            "node": 11,
            "path": "rotation"
          }
        }
      ]
    }
  ]
}